<svg width="0" height="0" class="hidden">
  <symbol xmlns="http://www.w3.org/2000/svg" viewBox="0 0 48 48" id="convenient">
    <path d="M0 0h48v48H0z" fill="none"></path>
    <path d="M2 42h8V18H2v24zm44-22c0-2.21-1.79-4-4-4H29.37l1.91-9.14c.04-.2.07-.41.07-.63 0-.83-.34-1.58-.88-2.12L28.34 2 15.17 15.17C14.45 15.9 14 16.9 14 18v20c0 2.21 1.79 4 4 4h18c1.66 0 3.08-1.01 3.68-2.44l6.03-14.1A4 4 0 0046 24v-3.83l-.02-.02L46 20z"></path>
  </symbol>
  <symbol xmlns="http://www.w3.org/2000/svg" viewBox="0 0 400 400" id="efficient">
    <path d="M280.078 77.928c-2.978 5.702-10.414 13.3-16.211 16.566-5.459 3.075-5.62 2.297 1.377 6.659 6.441 4.014 11.207 9.007 14.881 15.589l2.39 4.282 3.86-5.918c4.343-6.66 9.707-11.856 15.773-15.282 4.998-2.823 5.086-2.264-.875-5.598-5.688-3.181-12.735-10.379-16.239-16.587-2.842-5.037-2.153-5.077-4.956.289M115.5 104.61c-1.865 2.106-16.186 17.487-31.825 34.18L55.24 169.141l22.77.207 22.769.207 4.493-2.287c5.547-2.823 9.279-6.699 13.053-13.557 3.366-6.113 5.108-6.718 8.272-2.87l1.988 2.418 5.367-11.591a7302.246 7302.246 0 0111.88-25.481c3.581-7.641 6.512-14.232 6.512-14.649 0-.465-6.453-.757-16.727-.757h-16.726l-3.391 3.829m44.004-.508c-1.847 4.069-13.064 27.955-17.886 38.086a1533.451 1533.451 0 00-6.159 13.106l-2.626 5.684 2.529 2.376c1.391 1.306 4.384 3.231 6.652 4.276l4.124 1.901h62.087c34.148 0 62.088-.227 62.088-.505 0-.464-25.607-55.997-29.758-64.534l-1.804-3.711h-77.74l-1.507 3.321m87.371-3.049c0 .223 7.831 16.917 18.196 38.791 1.12 2.363 4.651 9.922 7.846 16.797l5.81 12.5 32.985.203 32.985.204-2.232-2.678c-1.227-1.473-9.086-9.959-17.465-18.859-8.379-8.899-18.516-19.738-22.526-24.088-8.867-9.616-8.193-9.602-13.066-.266-6.332 12.133-7.537 12.245-12.87 1.195-4.804-9.957-10.329-15.773-19.466-20.492-5.834-3.013-10.197-4.428-10.197-3.307m-125.054 61.158c-.605 1.13-3.356 4.122-6.114 6.649-2.757 2.527-4.871 4.705-4.696 4.841.174.136 1.899 1.361 3.833 2.723 1.933 1.362 4.57 4.052 5.859 5.978 2.751 4.109 2.915 4.166 4.341 1.5 1.195-2.232 9.025-9.683 10.175-9.683 1.762 0 .4-2.144-2.669-4.203-1.844-1.237-4.561-3.945-6.038-6.018-3.151-4.424-3.258-4.465-4.691-1.787M56.25 177.374c0 .447 3.779 4.757 8.398 9.579a4850.034 4850.034 0 0120.899 22.017 35279.3 35279.3 0 0018.801 19.914c20.068 21.219 38.237 40.41 44.43 46.927 3.895 4.098 13.578 14.381 21.517 22.851 18.282 19.503 17.841 19.457 8.993.947-5.996-12.544-9.347-19.635-16.799-35.546a4408.02 4408.02 0 00-9.769-20.704c-2.455-5.156-8.663-18.339-13.794-29.296-10.391-22.187-10.273-21.989-11.627-19.42-2.623 4.977-5.57 4.226-8.864-2.26-3.412-6.716-7.023-10.477-12.92-13.454l-4.689-2.366H78.538c-14.898 0-22.288.269-22.288.811m86.328.863c-4.994 2.566-8.984 5.487-8.984 6.577 0 .979 6.502 15.216 16.392 35.889a3410.411 3410.411 0 0110.161 21.485c2.916 6.23 7.979 16.907 11.25 23.727 3.271 6.819 5.947 12.498 5.947 12.62 0 .122 3.019 6.495 6.71 14.163 3.69 7.669 8.65 18.161 11.021 23.318 2.371 5.156 4.57 9.653 4.886 9.994.316.34 3.058-4.757 6.094-11.328 3.036-6.571 9.019-19.33 13.295-28.354 9.176-19.364 45.525-96.534 48.389-102.734 1.092-2.364 2.306-4.912 2.698-5.664 1.209-2.322-123.324-2.023-127.859.307m133.272 4.771c-1.641 3.545-9.398 19.98-17.237 36.523a30042.075 30042.075 0 00-23.637 50c-5.162 10.957-11.661 24.668-14.444 30.469-7.456 15.544-7.84 17.297-2.429 11.071 1.43-1.645 29.846-31.808 63.147-67.028 33.301-35.22 61.217-64.812 62.035-65.759l1.488-1.721h-65.938l-2.985 6.445" fill-rule="evenodd"></path>
  </symbol>
  <symbol xmlns="http://www.w3.org/2000/svg" fill-rule="evenodd" clip-rule="evenodd" stroke-linejoin="round" stroke-miterlimit="2" viewBox="0 0 512 512" id="facebook">
    <path d="M449.446 0C483.971 0 512 28.03 512 62.554v386.892C512 483.97 483.97 512 449.446 512H342.978V319.085h66.6l12.672-82.621h-79.272v-53.617c0-22.603 11.073-44.636 46.58-44.636H425.6v-70.34s-32.71-5.582-63.982-5.582c-65.288 0-107.96 39.569-107.96 111.204v62.971h-72.573v82.621h72.573V512H62.554C28.03 512 0 483.97 0 449.446V62.554C0 28.03 28.029 0 62.554 0h386.892z"></path>
  </symbol>
  <symbol xmlns="http://www.w3.org/2000/svg" viewBox="0 0 52 52" id="guarantee">
    <path d="M43.194 15.02c-6.05-1.26-11.52-4.38-15.82-9.01l-.64-.69c-.19-.2-.45-.32-.73-.32-.3-.01-.54.11-.73.31l-.98 1.03c-4.08 4.27-9.22 7.22-14.86 8.54l-.65.15c-.44.1-.76.49-.77.95-.34 12.41 6.63 21.53 10.81 25.85 2.48 2.56 5.73 5.16 7.17 5.17h.03c1.56-.03 4.84-2.75 7.22-5.26 3.36-3.54 11.12-13.12 10.74-25.77-.01-.46-.34-.85-.79-.95zm-20.292 19.3l-4.61-4.61 1.414-1.414 3.39 3.39L35.897 22.2l1.19 1.606L22.902 34.32z"></path>
  </symbol>
  <symbol xmlns="http://www.w3.org/2000/svg" fill-rule="evenodd" clip-rule="evenodd" stroke-linejoin="round" stroke-miterlimit="2" viewBox="0 0 512 512" id="instagram">
    <path d="M449.446 0C483.971 0 512 28.03 512 62.554v386.892C512 483.97 483.97 512 449.446 512H62.554C28.03 512 0 483.97 0 449.446V62.554C0 28.03 28.029 0 62.554 0h386.892zM256 81c-47.527 0-53.487.201-72.152 1.053-18.627.85-31.348 3.808-42.48 8.135-11.508 4.472-21.267 10.456-30.996 20.184-9.729 9.729-15.713 19.489-20.185 30.996-4.326 11.132-7.284 23.853-8.135 42.48C81.201 202.513 81 208.473 81 256s.201 53.487 1.052 72.152c.851 18.627 3.809 31.348 8.135 42.48 4.472 11.507 10.456 21.267 20.185 30.996s19.488 15.713 30.996 20.185c11.132 4.326 23.853 7.284 42.48 8.134C202.513 430.799 208.473 431 256 431s53.487-.201 72.152-1.053c18.627-.85 31.348-3.808 42.48-8.134 11.507-4.472 21.267-10.456 30.996-20.185s15.713-19.489 20.185-30.996c4.326-11.132 7.284-23.853 8.134-42.48C430.799 309.487 431 303.527 431 256s-.201-53.487-1.053-72.152c-.85-18.627-3.808-31.348-8.134-42.48-4.472-11.507-10.456-21.267-20.185-30.996-9.729-9.728-19.489-15.712-30.996-20.184-11.132-4.327-23.853-7.285-42.48-8.135C309.487 81.201 303.527 81 256 81zm0 31.532c46.727 0 52.262.178 70.715 1.02 17.062.779 26.328 3.63 32.495 6.025 8.169 3.175 13.998 6.968 20.122 13.091 6.124 6.124 9.916 11.954 13.091 20.122 2.396 6.167 5.247 15.433 6.025 32.495.842 18.453 1.021 23.988 1.021 70.715 0 46.727-.179 52.262-1.021 70.715-.778 17.062-3.629 26.328-6.025 32.495-3.175 8.169-6.967 13.998-13.091 20.122-6.124 6.124-11.953 9.916-20.122 13.091-6.167 2.396-15.433 5.247-32.495 6.025-18.45.842-23.985 1.021-70.715 1.021-46.73 0-52.264-.179-70.715-1.021-17.062-.778-26.328-3.629-32.495-6.025-8.169-3.175-13.998-6.967-20.122-13.091-6.124-6.124-9.917-11.953-13.091-20.122-2.396-6.167-5.247-15.433-6.026-32.495-.842-18.453-1.02-23.988-1.02-70.715 0-46.727.178-52.262 1.02-70.715.779-17.062 3.63-26.328 6.026-32.495 3.174-8.168 6.967-13.998 13.091-20.122 6.124-6.123 11.953-9.916 20.122-13.091 6.167-2.395 15.433-5.246 32.495-6.025 18.453-.842 23.988-1.02 70.715-1.02zm0 53.603c-49.631 0-89.865 40.234-89.865 89.865 0 49.631 40.234 89.865 89.865 89.865 49.631 0 89.865-40.234 89.865-89.865 0-49.631-40.234-89.865-89.865-89.865zm0 148.198c-32.217 0-58.333-26.116-58.333-58.333s26.116-58.333 58.333-58.333 58.333 26.116 58.333 58.333-26.116 58.333-58.333 58.333zm114.416-151.748c0 11.598-9.403 20.999-21.001 20.999-11.597 0-20.999-9.401-20.999-20.999 0-11.598 9.402-21 20.999-21 11.598 0 21.001 9.402 21.001 21z"></path>
  </symbol>
  <symbol xmlns="http://www.w3.org/2000/svg" fill-rule="evenodd" clip-rule="evenodd" stroke-linejoin="round" stroke-miterlimit="2" viewBox="0 0 512 512" id="linkedin">
    <path d="M449.446 0C483.971 0 512 28.03 512 62.554v386.892C512 483.97 483.97 512 449.446 512H62.554C28.03 512 0 483.97 0 449.446V62.554C0 28.03 28.029 0 62.554 0h386.892zM160.461 423.278V197.561h-75.04v225.717h75.04zm270.539 0V293.839c0-69.333-37.018-101.586-86.381-101.586-39.804 0-57.634 21.891-67.617 37.266v-31.958h-75.021c.995 21.181 0 225.717 0 225.717h75.02V297.222c0-6.748.486-13.492 2.474-18.315 5.414-13.475 17.767-27.434 38.494-27.434 27.135 0 38.007 20.707 38.007 51.037v120.768H431zM123.448 88.722C97.774 88.722 81 105.601 81 127.724c0 21.658 16.264 39.002 41.455 39.002h.484c26.165 0 42.452-17.344 42.452-39.002-.485-22.092-16.241-38.954-41.943-39.002z"></path>
  </symbol>
  <symbol xmlns="http://www.w3.org/2000/svg" viewBox="0 0 94 74" id="safe">
    <path d="M23.603 7.519C4.492 18.608 5.589 36.67 6.247 43.353c24.684-29.24 61.606-27.822 61.606-27.822S15.515 33.484.143 69.485c-1.214 2.842 5.696 6.538 7.273 3.178 4.707-10.012 11.266-17.521 11.266-17.521 9.677 3.601 26.417 7.821 38.282-.528 15.76-11.091 14.149-35.677 36.647-47.648 5.255-2.795-44.099-14.482-70.008.553z"></path>
  </symbol>
  <symbol xmlns="http://www.w3.org/2000/svg" fill-rule="evenodd" clip-rule="evenodd" stroke-linejoin="round" stroke-miterlimit="2" viewBox="0 0 512 512" id="twitter">
    <path d="M449.446 0C483.971 0 512 28.03 512 62.554v386.892C512 483.97 483.97 512 449.446 512H62.554C28.03 512 0 483.97 0 449.446V62.554C0 28.03 28.029 0 62.554 0h386.892zM195.519 424.544c135.939 0 210.268-112.643 210.268-210.268 0-3.218 0-6.437-.153-9.502 14.406-10.421 26.973-23.448 36.935-38.314-13.18 5.824-27.433 9.809-42.452 11.648 15.326-9.196 26.973-23.602 32.49-40.92-14.252 8.429-30.038 14.56-46.896 17.931-13.487-14.406-32.644-23.295-53.946-23.295-40.767 0-73.87 33.104-73.87 73.87 0 5.824.613 11.494 1.992 16.858-61.456-3.065-115.862-32.49-152.337-77.241-6.284 10.881-9.962 23.601-9.962 37.088a73.57 73.57 0 0032.95 61.456c-12.107-.307-23.448-3.678-33.41-9.196v.92c0 35.862 25.441 65.594 59.311 72.49a73.66 73.66 0 01-19.464 2.606c-4.751 0-9.348-.46-13.946-1.38 9.349 29.426 36.628 50.728 68.965 51.341-25.287 19.771-57.164 31.571-91.8 31.571-5.977 0-11.801-.306-17.625-1.073 32.337 21.15 71.264 33.41 112.95 33.41z"></path>
  </symbol>
  <symbol xmlns="http://www.w3.org/2000/svg" fill-rule="evenodd" clip-rule="evenodd" stroke-linejoin="round" stroke-miterlimit="2" viewBox="0 0 512 512" id="youtube">
    <path d="M449.446 0C483.971 0 512 28.03 512 62.554v386.892C512 483.97 483.97 512 449.446 512H62.554C28.03 512 0 483.97 0 449.446V62.554C0 28.03 28.029 0 62.554 0h386.892zm-20.967 175.63c-4.139-15.489-16.337-27.687-31.826-31.826C368.575 136.28 256 136.28 256 136.28s-112.575 0-140.653 7.524c-15.486 4.139-27.686 16.337-31.826 31.826C76 203.705 76 262.282 76 262.282s0 58.576 7.521 86.648c4.14 15.489 16.34 27.69 31.826 31.829C143.425 388.28 256 388.28 256 388.28s112.575 0 140.653-7.521c15.489-4.139 27.687-16.34 31.826-31.829C436 320.858 436 262.282 436 262.282s0-58.577-7.521-86.652zM219.998 316.283V208.281l93.53 54.001-93.53 54.001z"></path>
  </symbol>
</svg>